<svg id="Layer_1" data-name="Layer 1" xmlns="http://www.w3.org/2000/svg" viewBox="0 0 32 32"><defs><style>.cls-1{fill:#ba63c6;}</style></defs><title>Bold Purple</title><path class="cls-1" d="M32,7.88c-.19-3-1.93-4.74-5-4.87H5C2,3,.13,4.88,0,8V24.08A4.78,4.78,0,0,0,4.87,29H27.13A4.86,4.86,0,0,0,32,24V8S32,7.92,32,7.88ZM26.93,25H5.07c-.93-.07-1-.29-1.07-1V8.09C4,7,4.34,7,5,7H26.91c.85,0,1,.12,1.09,1.07V23.91C28,24.67,27.81,24.93,26.93,25Z"/><path class="cls-1" d="M22.06,14.3l-8-5A2,2,0,0,0,11,11V21a2,2,0,0,0,3.06,1.7l8-5a2,2,0,0,0,0-3.39Zm-7.31,3.63V14.07L17.85,16Z"/></svg>